<svg xmlns="http://www.w3.org/2000/svg" viewBox="0 0 273.13 69.39"><defs><style>.cls-1{fill:#6a3091;}.cls-2{fill:#f37820;}</style></defs><title>Recurso 1</title><g id="Capa_2" data-name="Capa 2"><g id="Capa_1-2" data-name="Capa 1"><g id="_Grupo_" data-name="&lt;Grupo&gt;"><path id="_Trazado_compuesto_" data-name="&lt;Trazado compuesto&gt;" class="cls-1" d="M217.64,42.79a1.07,1.07,0,0,1,1.11-1.19,1,1,0,0,1,1.11,1.11,3.68,3.68,0,0,1,2.6-1.11,3.28,3.28,0,0,1,2.87,1.54,4.86,4.86,0,0,1,3.3-1.54,3.52,3.52,0,0,1,3.65,3.69v5.57a1.23,1.23,0,1,1-2.46,0V46.32c0-1.41-.29-2.5-1.66-2.5-1.09,0-2,.94-2,2.87v4.18a1.23,1.23,0,1,1-2.46,0V46.32c0-1.41-.29-2.5-1.66-2.5-1.09,0-2,.94-2,2.87v4.18a1.23,1.23,0,1,1-2.46,0Z"/><path id="_Trazado_compuesto_2" data-name="&lt;Trazado compuesto&gt;" class="cls-1" d="M241.26,52.26c-3.2,0-5-2.34-5-5.33s1.84-5.33,5-5.33,5,2.34,5,5.33S244.45,52.26,241.26,52.26ZM242,38.08a4.6,4.6,0,0,1,1.37-.37c.61,0,.76.74.78,1.23s-.06.61-.49.72l-2.64.61a13.44,13.44,0,0,1-1.8.39c-.47,0-.72-.43-.72-1,0-.23.18-.41.49-.53Zm-.74,5.74c-1.68,0-2.46,1.48-2.46,3.12s.78,3.12,2.46,3.12,2.46-1.48,2.46-3.12S242.94,43.82,241.26,43.82Z"/><path id="_Trazado_compuesto_3" data-name="&lt;Trazado compuesto&gt;" class="cls-1" d="M256.12,43.53c.18-1.31.39-1.93,1.29-1.93a1,1,0,0,1,1.17,1.13,18.17,18.17,0,0,1-2.83,8.61,1.88,1.88,0,0,1-3.24,0,18.17,18.17,0,0,1-2.83-8.61,1,1,0,0,1,1.17-1.13c.9,0,1.11.61,1.29,1.93a15.48,15.48,0,0,0,2,6.09A15.47,15.47,0,0,0,256.12,43.53Z"/><path id="_Trazado_compuesto_4" data-name="&lt;Trazado compuesto&gt;" class="cls-1" d="M265.5,39a1.36,1.36,0,1,1-1.35-1.52A1.35,1.35,0,0,1,265.5,39Zm-.12,11.85a1.23,1.23,0,1,1-2.46,0V42.94a1.23,1.23,0,1,1,2.46,0Z"/><path id="_Trazado_compuesto_5" data-name="&lt;Trazado compuesto&gt;" class="cls-1" d="M273.13,50.87a1.23,1.23,0,1,1-2.46,0v-12a1.23,1.23,0,1,1,2.46,0Z"/></g><path class="cls-2" d="M57.16,2.14c2,.48,2.52,1.55,2.52,3.4V13c0,2.81-1.07,3.4-3.69,2.52a42.08,42.08,0,0,0-14.07-2.14c-16.59,0-25.13,9.61-25.13,21.16S25.62,56,41.92,56A60.77,60.77,0,0,0,55.8,54.64c2.62-.58,3.88,0,3.88,2.23v7.76a2.93,2.93,0,0,1-2.52,3,67.72,67.72,0,0,1-16.3,1.75C19.41,69.39,0,59,0,34.74S18.73,0,40.37,0A57.93,57.93,0,0,1,57.16,2.14Z"/><path class="cls-2" d="M133.33,40.76c0,18.44-11.06,28.63-31.54,28.63-20.28,0-31.35-10.19-31.35-28.63V5.63c0-4.08,1-5.14,5.34-5.14h5.63c4.27,0,5.34,1.07,5.34,5.14V40.85c0,11.74,7.76,14.56,15,14.56,7.47,0,15.24-2.81,15.24-14.56V5.63c0-4.08,1.07-5.14,5.34-5.14H128c4.27,0,5.34,1.07,5.34,5.14Z"/><path class="cls-2" d="M201.54.48h-5.34c-4.27,0-5.34,1.07-5.34,5.14V8.81c0,7.76-3.2,15.43-15.24,15.43-12.33,0-15.43-7.67-15.43-15.43V5.63c0-4.08-1.07-5.14-5.34-5.14h-5.43c-4.37,0-5.34,1.07-5.34,5.14V7.93c0,16.5,8.06,27,23.49,29.6v7a7.62,7.62,0,0,1-2,5c-1.94,1.91-5.3,2.52-8.32,2.7a2.53,2.53,0,0,0-2.36,2.54V65.83a2.56,2.56,0,0,0,2.55,2.56c1.05,0,2.06,0,2.21,0,6.53-.47,11.89-2.48,16-6,4.12,3.51,9.49,5.53,16,6h2.18a2.59,2.59,0,0,0,2.58-2.58v-11A2.55,2.55,0,0,0,194,52.21c-3-.18-6.37-.79-8.31-2.7a7.62,7.62,0,0,1-2-5v-7c15-2.62,23.19-13.1,23.19-29.6V5.63C206.88,1.55,205.91.48,201.54.48Z"/></g></g></svg>